<svg width="141" height="41" viewBox="0 0 141 41" fill="none" xmlns="http://www.w3.org/2000/svg" class="flex-shrink-0"><g clip-path="url(#clip0_1_239)"><path d="M21.3334 40.1481H0V0.0498047H20.8348V8.4501H10.193V15.4996H18.7371V23.5008H10.193V31.7514H21.3334V40.1517V40.1481Z" fill="#38B77C"></path><path d="M21.9353 9.95068H31.7294L34.7282 29.0001L37.5276 9.95068H47.2719L40.4266 40.1483H29.0832L21.9353 9.95068Z" fill="#38B77C"></path><path d="M49.2164 8.15067V0.349121H58.6081V8.15067H49.2164ZM58.6081 9.95048V40.1481H49.2164V9.95048H58.6081Z" fill="#38B77C"></path><path d="M76.1984 40.1482H69.9017C65.2539 40.1482 63.5551 36.6484 63.5551 33.1486V16.1983H60.7557V9.94706H63.5551V1.8996L72.9468 0V9.95063H76.1949V16.2018H72.9468V30.7999C72.9468 34.2748 74.3536 33.9255 75.885 33.6083L76.1913 33.8614V40.1482H76.1984Z" fill="#38B77C"></path><path d="M88.539 40.1482H79.1473V9.95062H88.2897V13.1511C89.8888 10.7026 92.3356 9.45166 95.3344 9.45166C98.6323 9.45166 101.581 12.4026 101.581 17.9019V21.6512L92.1896 22.7524V19.4023C92.1896 16.3515 91.7907 15.5033 90.74 15.5033C89.5897 15.5033 88.5426 16.9538 88.5426 20.8528V40.1518L88.539 40.1482Z" fill="#38B77C"></path><path d="M116.02 41.0002C106.574 41.0002 103.18 36.2494 103.18 26.2988V23.7506C103.18 13.8 106.528 9.05273 116.02 9.05273C125.511 9.05273 128.909 13.8534 128.909 23.8539V26.2525C128.909 36.1532 125.461 41.0038 116.02 41.0038V41.0002ZM116.02 14.8014C114.221 14.8014 113.32 16.5513 113.32 21.8011V28.2519C113.27 33.4517 114.217 35.2515 116.02 35.2515C117.822 35.2515 118.769 33.4517 118.769 28.2519V21.8011C118.769 16.5513 117.868 14.8014 116.02 14.8014Z" fill="#38B77C"></path><path d="M141 0.0498047V40.1481H131.608V0.0498047H141Z" fill="#38B77C"></path></g><defs><clipPath id="clip0_1_239"><rect width="141" height="41" fill="white"></rect></clipPath></defs></svg>