<svg class="text-[#174243] max-md:max-h-[29px]" width="141" height="41" viewBox="0 0 141 41" fill="none" xmlns="http://www.w3.org/2000/svg"><g clip-path="url(#clip0_1_30)"><path d="M21.3334 40.1482H0V0.0498962H20.8348V8.45019H10.193V15.4997H18.7371V23.5009H10.193V31.7515H21.3334V40.1518V40.1482Z" fill="currentColor"></path><path d="M21.9353 9.95062H31.7294L34.7282 29.0001L37.5276 9.95062H47.2719L40.4266 40.1482H29.0832L21.9353 9.95062Z" fill="currentColor"></path><path d="M49.2164 8.15082V0.349274H58.6081V8.15082H49.2164ZM58.6081 9.95063V40.1482H49.2164V9.95063H58.6081Z" fill="currentColor"></path><path d="M76.1984 40.1482H69.9017C65.2539 40.1482 63.5551 36.6484 63.5551 33.1486V16.1983H60.7557V9.94706H63.5551V1.8996L72.9468 0V9.95063H76.1949V16.2018H72.9468V30.7999C72.9468 34.2748 74.3536 33.9255 75.885 33.6083L76.1913 33.8614V40.1482H76.1984Z" fill="currentColor"></path><path d="M88.539 40.1482H79.1473V9.95063H88.2897V13.1511C89.8888 10.7026 92.3356 9.45168 95.3344 9.45168C98.6323 9.45168 101.581 12.4026 101.581 17.9019V21.6512L92.1896 22.7524V19.4023C92.1896 16.3515 91.7907 15.5033 90.74 15.5033C89.5897 15.5033 88.5426 16.9538 88.5426 20.8528V40.1518L88.539 40.1482Z" fill="currentColor"></path><path d="M116.02 41C106.574 41 103.18 36.2492 103.18 26.2986V23.7503C103.18 13.7997 106.528 9.05251 116.02 9.05251C125.511 9.05251 128.909 13.8532 128.909 23.8537V26.2523C128.909 36.153 125.461 41.0036 116.02 41.0036V41ZM116.02 14.8012C114.221 14.8012 113.32 16.5511 113.32 21.8009V28.2516C113.27 33.4515 114.217 35.2513 116.02 35.2513C117.822 35.2513 118.769 33.4515 118.769 28.2516V21.8009C118.769 16.5511 117.868 14.8012 116.02 14.8012Z" fill="currentColor"></path><path d="M141 0.0498962V40.1482H131.608V0.0498962H141Z" fill="currentColor"></path></g><defs><clipPath id="clip0_1_30"><rect width="141" height="41" fill="white"></rect></clipPath></defs></svg>